<?xml version="1.0" encoding="utf-8"?>
<!-- Generator: Adobe Illustrator 24.0.3, SVG Export Plug-In . SVG Version: 6.00 Build 0)  -->
<svg version="1.1" id="Capa_1" xmlns="http://www.w3.org/2000/svg" xmlns:xlink="http://www.w3.org/1999/xlink" x="0px" y="0px"
	 viewBox="0 0 512 512" style="enable-background:new 0 0 512 512;" xml:space="preserve">
<g>
	<g>
		<path d="M464,139.01H288.67l12.96-10.3c10.21-7.9,16.67-19.3,18.11-32.1c1.5-12.8-2.18-25.41-10.11-35.14
			c-7.9-10.24-19.33-16.67-32.1-18.14c-12.96-1.5-25.47,2.21-34.56,9.73L96,156.19V155c0-8.83-7.17-16-16-16H16
			c-8.83,0-16,7.17-16,16v256c0,8.83,7.17,16,16,16h64c8.83,0,16-7.17,16-16v-0.38c13.41,10.14,29.92,16.38,48,16.38h160
			c26.46,0,48-21.54,48-48c0-8.61-2.46-16.54-6.43-23.52c13.44-8.51,22.43-23.42,22.43-40.48c0-8.61-2.46-16.54-6.43-23.52
			c13.44-8.54,22.43-23.42,22.43-40.48c0-5.63-1.15-10.98-2.94-16H464c26.46,0,48-21.54,48-48S490.46,139.01,464,139.01z M64,203.65
			v143.36v48H32v-224h32V203.65z M464,203.01H272c-8.83,0-16,7.17-16,16s7.17,16,16,16h64c8.8,0,16,7.2,16,16s-7.2,16-16,16h-48
			c-8.83,0-16,7.17-16,16s7.17,16,16,16h32c8.8,0,16,7.2,16,16s-7.2,16-16,16h-48c-8.83,0-16,7.17-16,16s7.17,16,16,16h32
			c8.8,0,16,7.2,16,16s-7.2,16-16,16H144c-26.46,0-48-21.54-48-48V203.65c0-5.25,2.53-10.11,6.78-13.12l159.49-112
			c3.3-2.69,7.2-3.94,11.58-3.42c4.13,0.48,7.84,2.59,10.69,6.24c2.72,3.33,3.94,7.42,3.42,11.62c-0.48,4.16-2.56,7.84-6.08,10.56
			l-48.96,38.98c-0.26,0.19-0.38,0.48-0.61,0.67c-0.83,0.74-1.44,1.6-2.08,2.5c-0.61,0.8-1.25,1.57-1.66,2.46
			c-0.42,0.86-0.61,1.79-0.86,2.72c-0.29,1.09-0.61,2.18-0.67,3.3c0,0.32-0.16,0.58-0.16,0.86c0,0.7,0.32,1.28,0.38,1.95
			c0.13,1.12,0.29,2.21,0.67,3.3c0.35,1.02,0.9,1.92,1.44,2.85c0.35,0.61,0.51,1.31,0.96,1.89c0.19,0.22,0.51,0.35,0.7,0.58
			c0.74,0.83,1.6,1.44,2.5,2.08c0.8,0.61,1.57,1.25,2.46,1.66c0.83,0.42,1.76,0.61,2.66,0.86c1.12,0.32,2.21,0.61,3.39,0.67
			c0.29,0,0.54,0.16,0.83,0.16H464c8.8,0,16,7.2,16,16S472.8,203.01,464,203.01z"/>
	</g>
</g>
<rect x="24" y="159" width="46" height="243"/>
</svg>
