<?xml version="1.0" encoding="utf-8"?>
<!-- Generator: Adobe Illustrator 24.0.3, SVG Export Plug-In . SVG Version: 6.00 Build 0)  -->
<svg version="1.1" id="圖層_1" xmlns="http://www.w3.org/2000/svg" xmlns:xlink="http://www.w3.org/1999/xlink" x="0px" y="0px"
	 viewBox="0 0 1016.69 841.68" style="enable-background:new 0 0 1016.69 841.68;" xml:space="preserve">
<style type="text/css">
	.st0{fill:#9D8A0D;}
	.st1{fill:#182987;}
</style>
<g>
	<g>
		<g>
			<path class="st0" d="M241.8,143.12c-3.35,3.35-6.61,6.74-9.82,10.17c150.48-140.81,386.65-137.83,533.48,9
				c140.18,140.18,149.24,361.82,27.22,512.55l90.75,90.75C1048.5,590.38,1045.38,314.5,874,143.12
				C699.42-31.46,416.37-31.46,241.8,143.12z"/>
			<path class="st1" d="M768.06,695.76c3.35-3.35,6.6-6.75,9.83-10.16c-150.49,140.81-386.65,137.84-533.48-9
				C104.22,536.42,95.15,314.79,217.18,164.05L126.43,73.3c-165.08,175.21-161.95,451.1,9.42,622.47
				C310.43,870.35,593.48,870.34,768.06,695.76z"/>
		</g>
		<path class="st0" d="M562.44,448.63h63.49l-31.74-82.34L562.44,448.63z M383.93,448.63h63.5l-31.75-82.34L383.93,448.63z
			 M504.93,200.02L285.5,419.44l219.43,219.42l219.42-219.42L504.93,200.02z M570.29,535.6H439.58c-4.96,0-8.98-4.03-8.98-9
			c0-4.97,4.02-8.99,8.98-8.99h130.71c4.97,0,8.99,4.02,8.99,8.99C579.27,531.57,575.25,535.6,570.29,535.6z M639.02,466.62h-89.69
			c-2.98,0-5.73-1.46-7.42-3.91c-1.68-2.46-2.05-5.54-0.98-8.32l40.13-104.1h-67.14v140.23h27.76c4.97,0,8.99,4.02,8.99,8.99
			c0,4.97-4.02,9-8.99,9h-73.53c-4.96,0-8.99-4.03-8.99-9c0-4.97,4.03-8.99,8.99-8.99h27.77V350.29h-67.15l40.12,104.1
			c1.07,2.79,0.72,5.87-0.97,8.32c-1.67,2.45-4.43,3.91-7.41,3.91h-89.69c-2.98,0-5.73-1.46-7.42-3.91
			c-1.68-2.46-2.05-5.54-0.97-8.32l44.84-116.32c1.1-2.84,3.52-4.85,6.4-5.51v-0.25h82.25v-27.94c0-4.97,4.03-8.99,9-8.99
			c4.96,0,9,4.02,9,8.99v27.94h82.25v0.25c2.87,0.66,5.3,2.67,6.38,5.51l44.85,116.32c1.07,2.79,0.7,5.87-0.98,8.32
			C644.75,465.16,642,466.62,639.02,466.62z"/>
	</g>
	<path class="st1" d="M506.53,90.48c-8.53-0.27-15.64,6.42-15.9,14.94c-0.26,8.51,6.44,15.63,14.95,15.89
		c8.5,0.26,15.62-6.42,15.89-14.94C521.73,97.85,515.04,90.73,506.53,90.48z M653.29,131.08c-8.51-0.26-15.61,6.42-15.89,14.94
		c-0.26,8.51,6.42,15.63,14.94,15.89c8.52,0.26,15.64-6.44,15.9-14.95C668.5,138.45,661.81,131.33,653.29,131.08z M765.43,233.76
		c-8.51-0.26-15.63,6.44-15.89,14.94c-0.27,8.53,6.42,15.64,14.93,15.9c8.51,0.26,15.64-6.43,15.89-14.94
		C780.64,241.15,773.94,234.03,765.43,233.76z M360.01,129.34c-8.52-0.27-15.63,6.42-15.89,14.94c-0.26,8.52,6.43,15.63,14.94,15.89
		c8.52,0.27,15.63-6.43,15.89-14.94C375.21,136.71,368.53,129.59,360.01,129.34z M245.3,228.68c-8.51-0.27-15.62,6.43-15.89,14.94
		c-0.26,8.51,6.42,15.63,14.94,15.89c8.51,0.26,15.63-6.43,15.89-14.94C260.51,236.06,253.81,228.95,245.3,228.68z M207.02,385.23
		c0.26-8.51-6.43-15.63-14.95-15.89c-8.51-0.26-15.63,6.42-15.89,14.93c-0.26,8.53,6.44,15.62,14.94,15.9
		C199.64,400.43,206.76,393.75,207.02,385.23z M206.42,519.37c-8.51-0.26-15.62,6.42-15.89,14.94c-0.26,8.51,6.43,15.63,14.94,15.89
		c8.51,0.26,15.64-6.42,15.9-14.94C221.63,526.74,214.95,519.62,206.42,519.37z M292.31,644.61c-8.5-0.27-15.62,6.43-15.89,14.94
		c-0.26,8.52,6.43,15.62,14.93,15.89c8.52,0.26,15.63-6.42,15.91-14.96C307.52,651.97,300.84,644.86,292.31,644.61z M425.12,715.83
		c-8.51-0.26-15.62,6.42-15.89,14.94c-0.27,8.51,6.42,15.63,14.94,15.89c8.51,0.26,15.63-6.43,15.89-14.93
		C440.33,723.2,433.64,716.09,425.12,715.83z M576.84,717.59c-8.5-0.26-15.62,6.42-15.89,14.94c-0.27,8.51,6.44,15.62,14.94,15.89
		c8.52,0.28,15.63-6.42,15.9-14.93C592.05,724.96,585.36,717.85,576.84,717.59z M710.31,648.72c-8.5-0.26-15.63,6.44-15.89,14.95
		c-0.26,8.51,6.44,15.63,14.94,15.89c8.51,0.26,15.63-6.43,15.89-14.94C725.52,656.1,718.83,648.99,710.31,648.72z M798.03,525.19
		c-8.51-0.26-15.62,6.43-15.89,14.95c-0.26,8.51,6.44,15.63,14.94,15.9c8.51,0.26,15.63-6.44,15.9-14.96
		C813.25,532.58,806.55,525.46,798.03,525.19z M818.72,374.78c-8.51-0.26-15.62,6.43-15.89,14.94c-0.26,8.52,6.44,15.64,14.94,15.89
		c8.53,0.26,15.63-6.43,15.9-14.94C833.94,382.16,827.24,375.05,818.72,374.78z"/>
</g>
</svg>
