<?xml version="1.0" encoding="utf-8"?>
<!-- Generator: Adobe Illustrator 24.0.3, SVG Export Plug-In . SVG Version: 6.00 Build 0)  -->
<svg version="1.1" id="圖層_1" xmlns="http://www.w3.org/2000/svg" xmlns:xlink="http://www.w3.org/1999/xlink" x="0px" y="0px"
	 viewBox="0 0 86 85.3" style="enable-background:new 0 0 86 85.3;" xml:space="preserve">
<style type="text/css">
	.st0{fill:url(#SVGID_1_);}
	.st1{fill:#FFFFFF;}
</style>
<linearGradient id="SVGID_1_" gradientUnits="userSpaceOnUse" x1="2.3106" y1="-16.3931" x2="82.4216" y2="63.7179" gradientTransform="matrix(1 0 0 -1 0 67.3)">
	<stop  offset="0" style="stop-color:#FBBB00"/>
	<stop  offset="0.2755" style="stop-color:#F9B205"/>
	<stop  offset="0.6727" style="stop-color:#F39C12"/>
	<stop  offset="0.8868" style="stop-color:#F39C12"/>
	<stop  offset="0.9944" style="stop-color:#F39C12"/>
</linearGradient>
<path class="st0" d="M78.12,86H7.88C3.53,86,0,82.47,0,78.12V7.88C0,3.53,3.53,0,7.88,0h70.24C82.47,0,86,3.53,86,7.88v70.24
	C86,82.48,82.48,86,78.12,86z"/>
<path class="st1" d="M43,65.02c-0.34,0-0.65-0.17-0.83-0.45C41.6,63.71,28.2,43.33,28.2,35.49c0-8.16,6.64-14.8,14.8-14.8
	s14.8,6.64,14.8,14.8c0,7.84-13.4,28.22-13.97,29.08C43.65,64.85,43.34,65.02,43,65.02z M43,22.69c-7.06,0-12.8,5.74-12.8,12.8
	c0,6.18,9.84,22.05,12.8,26.69c2.96-4.64,12.8-20.51,12.8-26.69C55.81,28.43,50.06,22.69,43,22.69z"/>
<circle class="st1" cx="43.25" cy="35.3" r="4.15"/>
</svg>
