<?xml version="1.0" encoding="utf-8"?>
<!-- Generator: Adobe Illustrator 24.0.3, SVG Export Plug-In . SVG Version: 6.00 Build 0)  -->
<svg version="1.1" id="圖層_1" xmlns="http://www.w3.org/2000/svg" xmlns:xlink="http://www.w3.org/1999/xlink" x="0px" y="0px"
	 viewBox="0 0 1280 1024" style="enable-background:new 0 0 1280 1024;" xml:space="preserve">
<style type="text/css">
	.st0{fill:#E4F1FD;stroke:#3FA2F7;stroke-width:4;}
	.st1{fill:#FFFFFF;}
	.st2{fill:#3FA2F7;}
	.st3{fill:#E4F1FD;stroke:#3FA2F7;stroke-width:2;}
	.st4{fill:none;stroke:#3FA2F7;stroke-width:2;}
	.st5{fill:none;}
</style>
<path id="path-3_2_" class="st0" d="M1612.38,1075.51h-936c-2.21,0-4-1.79-4-4v-643c0-2.21,1.79-4,4-4h936"/>
<polyline id="Rectangle_4_" class="st1" points="1614.37,1073.51 674.37,1073.51 674.37,454.51 1614.37,454.51 "/>
<path id="Rectangle_3_" class="st2" d="M1613.23,455.51H676.19c-2.21,0-4-0.45-4-1l0,0c0-0.55,1.79-1,4-1h937.04"/>
<ellipse id="Oval_3_" class="st2" cx="691.71" cy="440.71" rx="4" ry="4"/>
<ellipse id="Oval_2_" class="st2" cx="705.71" cy="440.71" rx="4" ry="4"/>
<ellipse id="Oval_1_" class="st2" cx="719.71" cy="440.71" rx="4" ry="4"/>
<path id="Stroke_9_" class="st3" d="M492.37,1212.56V615.45c0-19.79,16.55-35.95,37-35.95h251c19.96,0,36,16.15,36,35.95v597.11"/>
<polyline id="Fill_1_" class="st2" points="804.37,1169.5 804.37,655.51 804.37,654.51 803.36,654.51 508.38,654.51 507.37,654.51 
	507.37,655.51 507.37,1169.5 "/>
<path id="Stroke_7_" class="st4" d="M679.73,621.51c0,1.1-0.86,2-2,2h-45.05c-1.14,0-2-0.9-2-2c0-1.1,0.86-2,2-2h45.05
	C678.87,619.51,679.73,620.4,679.73,621.51L679.73,621.51z"/>
<path id="Stroke_6_" class="st4" d="M659.71,601.53c0,2.76-2.24,4.99-5,4.99c-2.76,0-5-2.24-5-4.99c0-2.76,2.24-4.99,5-4.99
	C657.47,596.54,659.71,598.78,659.71,601.53L659.71,601.53z"/>
<path id="Stroke_5_" class="st4" d="M607.71,621.51c0,2.76-2.24,4.99-5,4.99c-2.76,0-5-2.24-5-4.99c0-2.76,2.24-4.99,5-4.99
	C605.47,616.52,607.71,618.75,607.71,621.51L607.71,621.51z"/>
<path id="Stroke_4_" class="st4" d="M819.37,724.51h-3v47h3c0.75,0,1-0.44,1-1v-45C820.37,724.94,820.12,724.51,819.37,724.51
	L819.37,724.51z"/>
<path id="Stroke_3_" class="st4" d="M492.37,663.51h-1c-0.35,0-1,0.43-1,1v20c0,0.57,0.65,1,1,1h1V663.51L492.37,663.51z"/>
<path id="Stroke_2_" class="st4" d="M489.04,786.51c-0.35,0-0.67,0.44-0.67,1v45c0,0.56,0.31,1,0.67,1h3.33v-47H489.04z"/>
<path id="Stroke_1_" class="st4" d="M489.04,724.51c-0.35,0-0.67,0.44-0.67,1v45c0,0.56,0.31,1,0.67,1h3.33v-47H489.04z"/>
<polyline id="Rectangle_1_" class="st1" points="509.37,1168.51 509.37,656.51 802.37,656.51 802.37,1168.51 "/>
<line id="Background_19_" class="st5" x1="1213.37" y1="1064.51" x2="-226.63" y2="1064.51"/>
</svg>
